<svg class="filled" width="26" height="24" viewBox="0 0 26 24" fill="none" xmlns="http://www.w3.org/2000/svg">
<path d="M15.5795 1.53834C16.4061 1.18293 17.292 1 18.1868 1C19.0815 1 19.9675 1.18293 20.7941 1.53834C21.6205 1.89369 22.3714 2.41449 23.0039 3.071C23.6365 3.7273 24.1388 4.50686 24.4812 5.36446C24.8237 6.22221 25 7.14158 25 8.07006C25 8.99853 24.8237 9.9179 24.4812 10.7757C24.1387 11.6333 23.6368 12.4126 23.0041 13.0689L13.7407 22.6815C13.3315 23.1062 12.668 23.1062 12.2587 22.6815L2.99538 13.0689C1.71776 11.7431 1 9.945 1 8.07006C1 6.19512 1.71776 4.39697 2.99538 3.07118C4.273 1.7454 6.00582 1.00058 7.81265 1.00058C9.61948 1.00058 11.3523 1.7454 12.6299 3.07118L12.9997 3.45492L13.3693 3.07136C14.0018 2.41477 14.753 1.89372 15.5795 1.53834Z" fill="#DD4D3A" fill-opacity="0.25" stroke="#DD4D3A" stroke-linecap="round" stroke-linejoin="round"/>
</svg>